<svg xmlns="http://www.w3.org/2000/svg" width="32" height="32"><g color="#000" font-family="sans-serif" font-weight="400"><path style="line-height:normal;text-indent:0;text-align:start;text-decoration-line:none;text-decoration-style:solid;text-decoration-color:#000;text-transform:none;block-progression:tb;isolation:auto;mix-blend-mode:normal" fill="#373748" fill-rule="evenodd" d="M9.854 1020.361v32h1v-32h-1zm11.292 0v32h1v-32h-1z" overflow="visible" transform="translate(0 -1020.362)"/><path style="line-height:normal;text-indent:0;text-align:start;text-decoration-line:none;text-decoration-style:solid;text-decoration-color:#000;text-transform:none;block-progression:tb;isolation:auto;mix-blend-mode:normal" fill="#373748" fill-rule="evenodd" d="M0 1030.215v1h32v-1H0zm0 11.295v1h32v-1H0z" overflow="visible" transform="translate(0 -1020.362)"/><path style="line-height:normal;text-indent:0;text-align:start;text-decoration-line:none;text-decoration-style:solid;text-decoration-color:#000;text-transform:none;block-progression:tb;isolation:auto;mix-blend-mode:normal" fill="#f55" fill-rule="evenodd" d="m7.264 1044.566-5.647 5.647.707.707 5.647-5.647-.707-.707z" overflow="visible" transform="translate(0 -1020.362)"/><path style="line-height:normal;text-indent:0;text-align:start;text-decoration-line:none;text-decoration-style:solid;text-decoration-color:#000;text-transform:none;block-progression:tb;isolation:auto;mix-blend-mode:normal" fill="#f05542" fill-rule="evenodd" d="m2.324 1044.566-.707.707 5.647 5.647.707-.707-5.647-5.647zm16.147-11.38-5.649 5.646.707.707 5.649-5.646-.707-.707z" overflow="visible" transform="translate(0 -1020.362)"/><path style="line-height:normal;text-indent:0;text-align:start;text-decoration-line:none;text-decoration-style:solid;text-decoration-color:#000;text-transform:none;block-progression:tb;isolation:auto;mix-blend-mode:normal" fill="#f05542" fill-rule="evenodd" d="m13.53 1033.186-.708.707 5.649 5.646.707-.707-5.649-5.646z" overflow="visible" transform="translate(0 -1020.362)"/><path style="line-height:normal;text-indent:0;text-align:start;text-decoration-line:none;text-decoration-style:solid;text-decoration-color:#000;text-transform:none;block-progression:tb;isolation:auto;mix-blend-mode:normal" fill="#373748" d="M16 1043.95a3.803 3.803 0 0 0-3.795 3.794 3.801 3.801 0 0 0 3.795 3.793 3.801 3.801 0 0 0 3.795-3.793A3.803 3.803 0 0 0 16 1043.95zm0 1a2.788 2.788 0 0 1 2.795 2.794 2.786 2.786 0 0 1-2.795 2.793 2.786 2.786 0 0 1-2.795-2.793A2.788 2.788 0 0 1 16 1044.95zm11.389-12.382a3.801 3.801 0 0 0-3.795 3.793 3.803 3.803 0 0 0 3.795 3.795 3.801 3.801 0 0 0 3.793-3.795 3.8 3.8 0 0 0-3.793-3.793zm0 1a2.785 2.785 0 0 1 2.793 2.793 2.786 2.786 0 0 1-2.793 2.795 2.788 2.788 0 0 1-2.795-2.795 2.786 2.786 0 0 1 2.795-2.793z" overflow="visible" transform="translate(0 -1020.362)"/></g></svg>